<?xml version="1.0" encoding="utf-8"?>
<!-- Generator: Adobe Illustrator 18.1.1, SVG Export Plug-In . SVG Version: 6.00 Build 0)  -->
<svg version="1.1" id="レイヤー_1" xmlns="http://www.w3.org/2000/svg" xmlns:xlink="http://www.w3.org/1999/xlink" x="0px"
	 y="0px" viewBox="0 0 32 32" enable-background="new 0 0 32 32" xml:space="preserve">
<g>
	<path fill="#318BF7" d="M13.2,13.8c0.4-0.3,0.6-0.7,0.6-1.2c0-0.5-0.1-0.9-0.4-1.1c-0.3-0.2-0.7-0.4-1.3-0.4h-1.1v3h0.8
		C12.3,14.1,12.8,14.1,13.2,13.8z"/>
	<path fill="#318BF7" d="M14.3,17.8c-0.5-0.4-1-0.7-1.7-0.7h-1.7v4h1.7c0.7,0,1.2-0.1,1.7-0.4s0.7-0.9,0.7-1.4
		C14.9,18.7,14.7,18.2,14.3,17.8z"/>
	<path fill="#318BF7" d="M16,0C7.2,0,0,7.2,0,16c0,8.8,7.2,16,16,16c8.8,0,16-7.2,16-16C32,7.2,24.8,0,16,0z M21.8,8.1h4v11h-4V8.1z
		 M17.5,23.1c-1.2,0.9-2.7,1.1-4.7,1.1h-6v-16h6.6c1.4,0,2.5,0.3,3.3,1c0.9,0.7,1.3,1.6,1.3,2.8c0,0.9-0.3,1.6-0.8,2.3
		c-0.5,0.6-1.3,1.1-2.3,1.5c1.4,0.2,2.5,0.6,3.2,1.3s1.1,1.5,1.1,2.7C19.3,21.2,18.7,22.2,17.5,23.1z M25.1,24.2
		c-0.4,0.4-1,0.6-1.6,0.6c-0.6,0-1.1-0.2-1.6-0.6c-0.4-0.4-0.6-0.9-0.6-1.4c0-0.6,0.2-1,0.7-1.4c0.4-0.4,0.9-0.6,1.4-0.6
		c0.7,0,1.2,0.2,1.7,0.6c0.4,0.4,0.6,0.9,0.6,1.4C25.7,23.4,25.5,23.9,25.1,24.2z"/>
</g>
</svg>
