<?xml version="1.0" encoding="utf-8"?>
<!-- Generator: Adobe Illustrator 18.1.1, SVG Export Plug-In . SVG Version: 6.00 Build 0)  -->
<svg version="1.1" id="レイヤー_1" xmlns="http://www.w3.org/2000/svg" xmlns:xlink="http://www.w3.org/1999/xlink" x="0px"
	 y="0px" viewBox="0 271.3 480 97.3" enable-background="new 0 271.3 480 97.3" xml:space="preserve">
<g>
	<path fill="#F7B756" d="M50.8,284.1c0,3.5,2.9,6.4,6.4,6.4h32c3.5,0,6.4-2.9,6.4-6.4v-6.4c0-3.5-2.9-6.4-6.4-6.4H57.1
		c-3.5,0-6.4,2.9-6.4,6.4L50.8,284.1L50.8,284.1z"/>
	<path fill="#FFF362" d="M38.3,290.7c3.5,0,6.4-2.9,6.4-6.4v-6.5c0-3.5-2.9-6.4-6.4-6.4H6.4c-3.5,0-6.4,2.9-6.4,6.4v6.5
		c0,3.5,2.9,6.4,6.4,6.4H38.3z"/>
	<path fill="#EC7971" d="M56.2,337.1l28.2,29c1.6,1.7,3.5,2.5,5.3,2.5h1.2c2.6,0,4.4-2,4.4-4.7v-62.8c0-2.6-1.7-4.7-4.4-4.7h-1.2
		c-1.8,0-3.8,0.7-5.3,2.5L56.2,328C53.9,330.5,53.9,334.6,56.2,337.1"/>
	<path fill="#C1DA80" d="M39.3,337.1l-28.3,29c-1.6,1.7-3.5,2.5-5.3,2.5H4.5c-2.6,0-4.4-2-4.4-4.7v-62.8c0-2.6,1.7-4.7,4.4-4.7h1.2
		c1.8,0,3.8,0.7,5.3,2.5l28.2,29C41.7,330.5,41.7,334.6,39.3,337.1"/>
	<path fill="#7DCCF3" d="M43.3,323.9l-21.6-22.2c-2-2-1.4-5.3,2.1-5.2h47.8c3.6-0.1,4.1,3.2,2.1,5.2l-21.7,22.2
		C49.8,326.4,45.7,326.4,43.3,323.9"/>
	<path fill="#C678AD" d="M52.2,341.1l21.5,22.2c2,2,1.4,5.3-2.1,5.2H23.7c-3.6,0.1-4.1-3.2-2.1-5.2L43,341.1
		C45.7,338.8,49.8,338.8,52.2,341.1"/>
	<path fill="#FFFFFF" d="M168.2,327h-21.8c-3.1,0-5.6-2.5-5.6-5.6v-0.3c0-3.1,2.5-5.6,5.6-5.6h30.1c2.3,0,4.4-2,4.4-4.4
		s-2-4.4-4.4-4.4h-30.1c-7.9,0-14.4,6.5-14.4,14.4v0.3c0,7.9,6.5,14.4,14.4,14.4h21.8c3.1,0,5.6,2.5,5.6,5.6v0.1
		c0,3.1-2.5,5.6-5.6,5.6h-30.5c-2.3,0-4.4,2-4.4,4.4s2,4.4,4.4,4.4h30.5c7.9,0,14.4-6.5,14.4-14.4v-0.1
		C182.7,333.5,176.2,327,168.2,327"/>
	<path fill="#FFFFFF" d="M227.5,315.5h19.9c2.3,0,4.4-2,4.4-4.4s-2-4.4-4.4-4.4h-19.9c-13.4,0-24.4,11-24.4,24.6v0.3
		c0,13.5,10.9,24.6,24.4,24.6h19.9c2.3,0,4.4-2,4.4-4.4s-2-4.4-4.4-4.4h-19.9c-8.5,0-15.6-7-15.6-15.7v-0.3
		C212.1,322.6,219,315.5,227.5,315.5"/>
	<path fill="#FFFFFF" d="M378.2,304.4c-14.9,0-26.9,12.1-26.9,26.9c0,14.9,12.1,26.9,26.9,26.9c14.9,0,26.9-12.1,26.9-26.9
		C405.1,316.5,393,304.4,378.2,304.4 M378.2,349.2c-10,0-18.1-8.1-18.1-18.1c0-10,8.1-18.1,18.1-18.1s18.1,8.2,18.1,18.2
		C396.2,341.1,388.2,349.2,378.2,349.2"/>
	<path fill="#FFFFFF" d="M453.1,304.4c-14.9,0-26.9,12.1-26.9,26.9c0,14.9,12.1,26.9,26.9,26.9c14.9,0,26.9-12.1,26.9-26.9
		C480,316.5,467.9,304.4,453.1,304.4 M453.1,349.2c-10,0-18.1-8.1-18.1-18.1c0-10,8.1-18.1,18.1-18.1s18.1,8.1,18.1,18.1
		C471.2,341.1,463.1,349.2,453.1,349.2"/>
	<path fill="#FFFFFF" d="M288.8,352.3v-20.9c0.3-7.8,6.8-14.2,14.7-14.2c8.1,0,14.7,6.6,14.7,14.7v20.4c0,2.3,2,4.4,4.4,4.4
		c2.3,0,4.4-2,4.4-4.4V332c0-13-10.6-23.6-23.6-23.6c-5.6,0-10.6,2-14.7,5.2v-30.8c0-2.3-2-4.4-4.4-4.4s-4.4,2-4.4,4.4v69.7
		c0,2.3,2,4.4,4.4,4.4C286.8,356.8,288.8,354.8,288.8,352.3"/>
</g>
</svg>
