<?xml version="1.0" encoding="utf-8"?>
<!-- Generator: Adobe Illustrator 18.1.1, SVG Export Plug-In . SVG Version: 6.00 Build 0)  -->
<svg version="1.1" id="レイヤー_1" xmlns="http://www.w3.org/2000/svg" xmlns:xlink="http://www.w3.org/1999/xlink" x="0px"
	 y="0px" viewBox="0 0 668.6 170.2" enable-background="new 0 0 668.6 170.2" xml:space="preserve">
<g>
	<g>
		<path fill="#FD6AB5" d="M4.5,66.6h92l-36.6,46.2l37.3,49.9H80.6l-29.2-39l-30.9,39H3.6l65.3-82.8H4.5V66.6z"/>
		<path fill="#33ABFC" d="M98.7,104.5l26.1-37.7h87l-68,95.5h-16.3L186,80.2h-54.1L115,104.5H98.7z"/>
		<path fill="#FF8A01" d="M213.7,121.3v-13.3h98.6v13.3H213.7z"/>
		<path fill="#3AA8FA" d="M439.7,118.3v13.3h-40.8l5.2,36H390l-5.2-36h-49v-13.3h47.1l-3.8-26.1h-42.7v-13h40.7l-2.6-17.6h14.2
			l2.6,17.6h40.4v13h-38.4l3.8,26.1H439.7z"/>
		<path fill="#E975FF" d="M450.5,89.9h12.6l6.7,22.5h-12.5L450.5,89.9z M487.8,89.9l6.8,22.5h-12.9l-6.8-22.5H487.8z M487.2,163.1
			l39.7-73.1h13.7l-39.8,73.1H487.2z"/>
		<path fill="#3BBE87" d="M550.5,66.6h84.3l-36.6,46.2l37.3,49.9H619l-29.2-39l-30.9,39h-17l65.3-82.8h-56.7V66.6z M650,75.2h-12
			l-3.3-22.8h12L650,75.2z M665.6,75.2h-12l-3.3-22.8h12L665.6,75.2z"/>
	</g>
	<g>
		<g>
			<g>
				<path fill="#0D5CF9" d="M7.4,33.5L12,17h4.9l-4.6,16.5H7.4z M29.2,44h-8.3v-4.7h3.6V7.2h4.7V44z M41.7,17l4.9,16h-5l-4.9-16
					H41.7z"/>
				<path fill="#0D5CF9" d="M86.7,12.2h6.9v8h-4.3v-3.7H61.2v3.7H57v-8h24.6l3.2-5.8h5.2L86.7,12.2z M85.1,18.5l-7.1,10.9h14.7v4.2
					h-16v10.9h-7.5v-4.2h3.3v-6.8H57.4v-4.2h15.2v-4.3H76l1.5-2.4H65.1v-4.2H85.1z M67.9,10.8h-4.8l-1.7-4.4h4.9L67.9,10.8z
					 M78.3,10.8h-4.8l-1.4-4.4h4.7L78.3,10.8z"/>
				<path fill="#0D5CF9" d="M126.5,38.3h14.3V43h-33.4v-4.7h14.3v-7.2h-8.4v-4.7h8.4v-6.9h-9.1l-1.4,6h-4.9l4-17.3h4.8l-1.5,6.6h8
					V6.8h4.7v7.9h10.9v4.7h-10.9v6.9h8.4v4.7h-8.4V38.3z"/>
				<path fill="#0D5CF9" d="M182.8,41.6h-6.5V37h6.5c0.6,0,2.7-0.2,2.7-2.8V20.1l-3.4-3.3h-8.4l-3,21.3l-4.1,3.6h-7.9l-4.1-4.7V18.6
					l5.8-6.5H184l6.1,6.1v16c0,1.1-0.2,2.1-0.6,3c-0.3,1-0.9,1.8-1.6,2.5C186.5,41,184.7,41.6,182.8,41.6z M160.8,37h4.2l1.4-1.4
					l2.7-18.9h-6.7l-3.2,3.6v15L160.8,37z"/>
				<path fill="#0D5CF9" d="M235.6,15.6h-21.6l-2.2,27.7h-4.5l2.2-27.7h-4.3v-4.5h4.6l0.2-2.9h4.5l-0.2,2.9h21.3V15.6z M221.8,38.1
					h14.7v4.4h-14.6c-2.1,0-3.2-0.9-3.8-1.7c-0.9-1.1-1-2.7-0.5-4.4l1.1-4.5h4.5L221.8,38.1z M234.4,26.7h-5.3l1.4-2.2h-11.4V20
					h13.4l3.7,3.7L234.4,26.7z"/>
				<path fill="#0D5CF9" d="M280.4,17l7.7,7.7v10c0,2.5-0.7,4.4-2.1,5.7c-1.2,1.1-2.8,1.6-4.5,1.6h-4.3v-4.4h4.3
					c0.5,0,1.1-0.1,1.5-0.5c0.6-0.5,0.7-1.7,0.7-2.5v-8.2l-5.1-5.1h-1.7l-9.1,12.4l3.2,1.8v5.1l-5.8-3.3l-3.1,4.3h-6.5l-5.4-4.1
					V26.1l5.3-4.7l-1.2-8.6h4.4l0.7,5l0.9-0.8h13.9l1.6-5.4h4.6l-1.6,5.4H280.4z M257,37.2h2.8l2.2-2.9l-5.2-8.3l-2.2,2v7.3
					L257,37.2z M264.8,30.5l6.6-9.1h-9.5l-1.8,1.6L264.8,30.5z"/>
				<path fill="#0D5CF9" d="M327.7,41.6h-6.5V37h6.5c0.6,0,2.7-0.2,2.7-2.8V20.1l-3.4-3.3h-8.4l-3,21.3l-4.1,3.6h-7.9l-4.1-4.7V18.6
					l5.8-6.5h23.5l6.1,6.1v16c0,1.1-0.2,2.1-0.6,3c-0.3,1-0.9,1.8-1.6,2.5C331.5,41,329.6,41.6,327.7,41.6z M305.7,37h4.2l1.4-1.4
					l2.7-18.9h-6.7l-3.2,3.6v15L305.7,37z"/>
				<path fill="#0D5CF9" d="M388.6,8h4.2l-4.2,29.3v0c-0.4,2.1-1.4,3.7-2.9,4.6c-1.3,0.9-2.9,1-4.1,1h-4.2l-5.9-14.3l-6,14.3h-5.1
					c-1.5,0-2.9-0.5-3.9-1.4c-1.1-1-1.7-2.4-1.9-4.2h0L351.2,8h4.1l3.3,28.8c0.3,2.1,1.4,2.1,1.8,2.1h2.4l6.3-15.2h4.7l6.3,15.2h1.4
					c1,0,1.5-0.1,1.9-0.3c0.4-0.3,0.8-1,1-1.9L388.6,8z"/>
				<path fill="#0D5CF9" d="M420.1,42.9h-10.8c-1.6,0-3-0.6-4.1-1.7c-1-1.1-1.5-2.6-1.5-4.3V24.6c0-1.7,0.5-3.2,1.5-4.3
					c1-1.1,2.5-1.6,4.1-1.6h10.8c1.6,0,3.1,0.6,4.2,1.6c1.2,1.1,1.8,2.6,1.8,4.3v8.3h-14.3v-4.1H422v-4.2c0-1.4-1-1.8-1.9-1.8h-10.8
					c-0.4,0-1.5,0-1.5,1.9v12.4c0,1.9,1.2,1.9,1.5,1.9h10.8c0.9,0,1.9-0.5,1.9-1.8h4.1c0,1.7-0.6,3.2-1.8,4.3
					C423.2,42.4,421.7,42.9,420.1,42.9z"/>
				<path fill="#0D5CF9" d="M455.2,42.9h-14.8V8h4.1v10.8H455c2.5,0,4.6,1.3,5.8,3.7c1.1,2.1,1.2,4.6,1.2,5.9v8
					c0,1.6-0.6,3.1-1.5,4.3C459.5,41.7,458,42.9,455.2,42.9z M444.6,38.8h10.7c2.5,0,2.6-2,2.6-2.4v-8c0-1.6-0.3-3.1-0.8-4.1
					c-0.6-1.3-1.4-1.5-2.1-1.5h-10.4V38.8z"/>
				<path fill="#0D5CF9" d="M483.3,9.1h31.4l-12.5,15.7l12.7,17h-5.7l-10-13.3l-10.5,13.3H483l22.3-28.2h-22V9.1z"/>
				<path fill="#0D5CF9" d="M528,22l8.9-12.9h29.7l-23.2,32.6h-5.6l20-28h-18.5l-5.7,8.3H528z"/>
				<path fill="#0D5CF9" d="M578.8,27.7v-4.5h33.6v4.5H578.8z"/>
				<path fill="#0D5CF9" d="M632.3,15.6l-2.4,25.5h-4.6l2.4-25.5H632.3z M645.8,34l9.2-6.7h7.7L641.2,43V7.9h4.5V34z"/>
			</g>
		</g>
		<g>
			<g>
				<path fill="#FFFFFF" d="M4.2,30.2l4.6-16.5h4.9L9.1,30.2H4.2z M26,40.8h-8.3v-4.7h3.6V4H26V40.8z M38.5,13.7l4.9,16h-5l-4.9-16
					H38.5z"/>
				<path fill="#FFFFFF" d="M83.5,9h6.9v8h-4.3v-3.7H58v3.7h-4.3V9h24.6l3.2-5.8h5.2L83.5,9z M81.9,15.3l-7.1,10.9h14.7v4.2h-16
					v10.9H66v-4.2h3.3v-6.8H54.2v-4.2h15.2v-4.3h3.4l1.5-2.4H61.9v-4.2H81.9z M64.7,7.5h-4.8l-1.7-4.4H63L64.7,7.5z M75.1,7.5h-4.8
					l-1.4-4.4h4.7L75.1,7.5z"/>
				<path fill="#FFFFFF" d="M123.3,35h14.3v4.7h-33.4V35h14.3v-7.2h-8.4v-4.7h8.4v-6.9h-9.1l-1.4,6h-4.9l4-17.3h4.8l-1.5,6.6h8V3.5
					h4.7v7.9h10.9v4.7h-10.9v6.9h8.4v4.7h-8.4V35z"/>
				<path fill="#FFFFFF" d="M179.6,38.4h-6.5v-4.6h6.5c0.6,0,2.7-0.2,2.7-2.8V16.8l-3.4-3.3h-8.4l-3,21.3l-4.1,3.6h-7.9l-4.1-4.7
					V15.3l5.8-6.5h23.5l6.1,6.1v16c0,1.1-0.2,2.1-0.6,3c-0.3,1-0.9,1.8-1.6,2.5C183.3,37.7,181.5,38.4,179.6,38.4z M157.6,33.8h4.2
					l1.4-1.4l2.7-18.9h-6.7l-3.2,3.6v15L157.6,33.8z"/>
				<path fill="#FFFFFF" d="M232.4,12.4h-21.6l-2.2,27.7h-4.5l2.2-27.7h-4.3V7.9h4.6l0.2-2.9h4.5l-0.2,2.9h21.3V12.4z M218.6,34.8
					h14.7v4.4h-14.6c-2.1,0-3.2-0.9-3.8-1.7c-0.9-1.1-1-2.7-0.5-4.4l1.1-4.5h4.5L218.6,34.8z M231.2,23.4h-5.3l1.4-2.2H216v-4.4
					h13.4l3.7,3.7L231.2,23.4z"/>
				<path fill="#FFFFFF" d="M277.2,13.7l7.7,7.7v10c0,2.5-0.7,4.4-2.1,5.7c-1.2,1.1-2.8,1.6-4.5,1.6h-4.3v-4.4h4.3
					c0.5,0,1.1-0.1,1.5-0.5c0.6-0.5,0.7-1.7,0.7-2.5v-8.2l-5.1-5.1h-1.7l-9.1,12.4l3.2,1.8v5.1l-5.8-3.3l-3.1,4.3h-6.5l-5.4-4.1
					V22.8l5.3-4.7L251,9.5h4.4l0.7,5l0.9-0.8h13.9l1.6-5.4h4.6l-1.6,5.4H277.2z M253.8,34h2.8l2.2-2.9l-5.2-8.3l-2.2,2v7.3L253.8,34
					z M261.6,27.2l6.6-9.1h-9.5l-1.8,1.6L261.6,27.2z"/>
				<path fill="#FFFFFF" d="M324.5,38.4H318v-4.6h6.5c0.6,0,2.7-0.2,2.7-2.8V16.8l-3.4-3.3h-8.4l-3,21.3l-4.1,3.6h-7.9l-4.1-4.7
					V15.3l5.8-6.5h23.5l6.1,6.1v16c0,1.1-0.2,2.1-0.6,3c-0.3,1-0.9,1.8-1.6,2.5C328.3,37.7,326.4,38.4,324.5,38.4z M302.5,33.8h4.2
					l1.4-1.4l2.7-18.9h-6.7l-3.2,3.6v15L302.5,33.8z"/>
				<path fill="#FFFFFF" d="M385.4,4.7h4.2L385.4,34v0c-0.4,2.1-1.4,3.7-2.9,4.6c-1.3,0.9-2.9,1-4.1,1h-4.2l-5.9-14.3l-6,14.3h-5.1
					c-1.5,0-2.9-0.5-3.9-1.4c-1.1-1-1.7-2.4-1.9-4.2h0L348,4.7h4.1l3.3,28.8c0.3,2.1,1.4,2.1,1.8,2.1h2.4l6.3-15.2h4.7l6.3,15.2h1.4
					c1,0,1.5-0.1,1.9-0.3c0.4-0.3,0.8-1,1-1.9L385.4,4.7z"/>
				<path fill="#FFFFFF" d="M416.9,39.7h-10.8c-1.6,0-3-0.6-4.1-1.7c-1-1.1-1.5-2.6-1.5-4.3V21.3c0-1.7,0.5-3.2,1.5-4.3
					c1-1.1,2.5-1.6,4.1-1.6h10.8c1.6,0,3.1,0.6,4.2,1.6c1.2,1.1,1.8,2.6,1.8,4.3v8.3h-14.3v-4.1h10.2v-4.2c0-1.4-1-1.8-1.9-1.8
					h-10.8c-0.4,0-1.5,0-1.5,1.9v12.4c0,1.9,1.2,1.9,1.5,1.9h10.8c0.9,0,1.9-0.5,1.9-1.8h4.1c0,1.7-0.6,3.2-1.8,4.3
					C420,39.1,418.5,39.7,416.9,39.7z"/>
				<path fill="#FFFFFF" d="M452,39.7h-14.8V4.8h4.1v10.8h10.4c2.5,0,4.6,1.3,5.8,3.7c1.1,2.1,1.2,4.6,1.2,5.9v8
					c0,1.6-0.6,3.1-1.5,4.3C456.3,38.5,454.8,39.7,452,39.7z M441.4,35.6H452c2.5,0,2.6-2,2.6-2.4v-8c0-1.6-0.3-3.1-0.8-4.1
					c-0.6-1.3-1.4-1.5-2.1-1.5h-10.4V35.6z"/>
				<path fill="#FFFFFF" d="M480.1,5.8h31.4L499,21.6l12.7,17h-5.7l-10-13.3l-10.5,13.3h-5.7l22.3-28.2h-22V5.8z"/>
				<path fill="#FFFFFF" d="M524.8,18.8l8.9-12.9h29.7l-23.2,32.6h-5.6l20-28h-18.5l-5.7,8.3H524.8z"/>
				<path fill="#FFFFFF" d="M575.6,24.5v-4.5h33.6v4.5H575.6z"/>
				<path fill="#FFFFFF" d="M629.1,12.4l-2.4,25.5h-4.6l2.4-25.5H629.1z M642.6,30.8l9.2-6.7h7.7L638,39.8V4.6h4.5V30.8z"/>
			</g>
		</g>
	</g>
</g>
</svg>
