<?xml version="1.0" encoding="utf-8"?>
<!-- Generator: Adobe Illustrator 24.0.1, SVG Export Plug-In . SVG Version: 6.00 Build 0)  -->
<svg version="1.1" id="レイヤー_1" xmlns="http://www.w3.org/2000/svg" xmlns:xlink="http://www.w3.org/1999/xlink" x="0px"
	 y="0px" viewBox="0 0 203.8 208" style="enable-background:new 0 0 203.8 208;" xml:space="preserve">
<style type="text/css">
	.st0{fill:#00B900;}
	.st1{fill:#FFFFFF;}
</style>
<rect x="3.8" y="3.5" class="st0" width="200" height="200"/>
<g>
	<g>
		<g>
			<g>
				<g>
					<path class="st1" d="M102.7,35.7c-3.8,0-7.7,0.1-11.5,0.4c-23,1.6-37,6-43.4,8.6c-2.6,1-4.3,3.5-4.3,6.4v65.3
						c0,33.3,45.6,53.1,56.8,57.5c1.6,0.6,3.4,0.6,4.9,0c11.2-4.4,56.8-24.2,56.8-57.5V51c0-2.8-1.7-5.4-4.3-6.4
						c-6.5-2.6-20.4-6.9-43.4-8.6C110.4,35.8,106.5,35.7,102.7,35.7L102.7,35.7z"/>
				</g>
			</g>
		</g>
	</g>
	<path class="st0" d="M119.5,112.8H96.6V71.2c0-1.3-1-2.3-2.3-2.3h-8.4c-1.3,0-2.3,1-2.3,2.3v52.3l0,0c0,0.6,0.2,1.2,0.7,1.6
		c0,0,0,0,0.1,0.1c0,0,0,0,0.1,0.1c0.4,0.4,1,0.7,1.6,0.7l0,0h33.6c1.3,0,2.3-1,2.3-2.3v-8.4C121.9,113.8,120.8,112.8,119.5,112.8z"
		/>
</g>
</svg>
