<?xml version="1.0" encoding="utf-8"?>
<!-- Generator: Adobe Illustrator 24.0.1, SVG Export Plug-In . SVG Version: 6.00 Build 0)  -->
<svg version="1.1" id="レイヤー_1" xmlns="http://www.w3.org/2000/svg" xmlns:xlink="http://www.w3.org/1999/xlink" x="0px"
	 y="0px" viewBox="0 0 275.4 277.7" style="enable-background:new 0 0 275.4 277.7;" xml:space="preserve">
<style type="text/css">
	.st0{fill:#3B579D;}
	.st1{fill:#FFFFFF;}
</style>
<path id="Blue_1_" class="st0" d="M256.4,272.9c8.1,0,14.7-6.6,14.7-14.7V20.7c0-8.1-6.6-14.7-14.7-14.7H18.9
	C10.8,6,4.2,12.6,4.2,20.7v237.4c0,8.1,6.6,14.7,14.7,14.7H256.4z"/>
<path id="f" class="st1" d="M188.4,272.9V169.6H223l5.2-40.3h-39.9v-25.7c0-11.7,3.2-19.6,20-19.6l21.3,0v-36
	c-3.7-0.5-16.4-1.6-31.1-1.6c-30.8,0-51.8,18.8-51.8,53.2v29.7H112v40.3h34.8v103.4H188.4z"/>
</svg>
