<?xml version="1.0" encoding="utf-8"?>
<!-- Generator: Adobe Illustrator 24.1.1, SVG Export Plug-In . SVG Version: 6.00 Build 0)  -->
<svg version="1.1" id="レイヤー_1" xmlns="http://www.w3.org/2000/svg" xmlns:xlink="http://www.w3.org/1999/xlink" x="0px"
	 y="0px" viewBox="0 0 841.9 254.1" style="enable-background:new 0 0 841.9 254.1;" xml:space="preserve">
<style type="text/css">
	.st0{fill:#19A78E;}
	.st1{fill:#FBB731;}
</style>
<g>
	<path class="st0" d="M51.5,191.7c15.2,15.8,59.9-6.8,97.2-52.4c37.2-45.3,45.4-86.8,21.7-92.1c-20.7-4.6-59.3,20.8-88.6,56.2
		C52.5,138.9,38.2,177.9,51.5,191.7z M86,105.6c25.2-30.6,58.2-51.9,75.4-47.4c19.3,5,11.9,39.9-19.1,77.6
		c-31.1,37.9-68.2,57.2-81.6,44.7l0,0C48.8,169.3,60.7,136.3,86,105.6z"/>
	<path class="st0" d="M68.8,168.4L68.8,168.4c11.2,9.6,41.4-6.6,66.2-36.8c24.7-30.1,31.3-58.6,16.2-63.2
		C137.3,64.1,110,81.6,89,106.9C68.1,132.4,58.6,159.7,68.8,168.4z M93.4,109.3c16.6-20.2,38-33.6,48.6-29.9c11.4,4,6,25.9-13,49
		C110,151.5,87,164.1,78,157.2l0,0C69.6,150.7,76.7,129.5,93.4,109.3z"/>
	<path d="M86,145.1L86,145.1c6.6,4.6,23-4.7,36.2-20.7c13.2-16,17.3-31.7,9.5-34.8c-7.4-2.9-22.9,6.7-34.9,21.2
		C84.8,125.4,79.8,140.7,86,145.1z"/>
	<path d="M164.8,161.2c-56.7,65.3-119.5,92.6-138.7,66.1l0,0c-16.4-22.7,5.7-78.5,46.7-128.1c40.8-49.3,95.4-86.6,127.2-83
		c18.6,2.1,26.3,17.2,22.9,40.3h11.9C241,26.6,232.2,7,208.9,5.2c-35.6-2.8-95.5,38.6-139.8,92C24.6,151.1-0.3,212.6,16.8,238.5l0,0
		c19.7,29.9,85.9,3.5,148-64.6V161.2z"/>
	<g>
		<g>
			<path class="st1" d="M71.5,64.7c15.5,14.7,40.2,52.3,38.1,54.6c-2.1,2.2-40.9-20.5-56.5-35.2c-13.3-12.6-20-27.2-14.9-32.6
				C43.3,46.1,58.2,52,71.5,64.7z"/>
		</g>
		<path class="st1" d="M33.2,24.1c6.6,6.2,6.8,16.6,0.6,23.2c-6.2,6.6-16.6,6.8-23.2,0.6C4.1,41.6,3.8,31.2,10,24.7
			C16.3,18.1,26.7,17.8,33.2,24.1z"/>
	</g>
</g>
<g>
	<path d="M690.4,191.4l7.2-27.5c12.4-8.9,22.2-21.9,30.6-53.6l9.9-37.7h23.8l-9.6,36.2C739.2,158.9,718.1,178.8,690.4,191.4z
		 M743.3,188.6l30.6-116.1h23.8l-22.6,85.5c17.3-5.3,30.1-28.9,36.1-48.8h23.6C820.9,158.3,790.2,187.1,743.3,188.6z"/>
	<path d="M254.6,151.9l-1,32.7l-25.1,3.2l1-33.6l-49.5,4.4l1.8-22.4l48.3-4.2l0.6-20.2l-40.1,3.6l2.2-22.3l38.4-3.5l0.6-20.7
		l25.1-3.1l-0.6,21.5l42.6-3.7l-1.9,22.2l-41.3,3.7l-0.6,20.2l44.5-3.9l-1.9,22.3L254.6,151.9z"/>
	<path d="M635,73.7C635,73.6,635,73.6,635,73.7l-23-0.1c-2.9,6.6-6.4,13.1-10.7,19.7c-7.3,11.1-16.1,23.4-25.6,31.8l13.6,14.7
		c14.8-13,27-29.4,35.6-44.4h43c-5.8,22.6-15.7,41.4-28.7,51.4c-13,10-32.4,16.3-58.1,19l-0.2,21.5c34-2.8,60.1-12.5,78.1-29
		c18-16.6,30.5-45,36.8-80.4l0.7-4.1H635z"/>
	<path d="M503.7,73.7C503.8,73.6,503.8,73.6,503.7,73.7l-23-0.1c-2.9,6.6-6.4,13.1-10.7,19.7c-7.3,11.1-16.1,23.4-25.6,31.8
		l13.6,14.7c14.8-13,27-29.4,35.6-44.4h43c-5.8,22.6-15.7,41.4-28.7,51.4c-13,10-32.4,16.3-58.1,19l-0.2,21.5
		c34-2.8,60.1-12.5,78.1-29c18-16.6,30.5-45,36.8-80.4l0.7-4.1H503.7z"/>
	<path d="M347.1,94.1l21.5-3.6l0,20.2l55.6-10.5l0.3,18.9c-3.2,7.6-7.6,15-13.1,22.4c-5.6,7.4-11.5,13.8-17.8,19.2l-14-12.3
		c9.3-8.2,16.5-16.5,21.6-24.8l-32.6,6.1l0,54.8L347,188l0.1-54.1l-24.6,4.7l-0.3-18.9l24.8-4.8L347.1,94.1z"/>
</g>
</svg>
