<?xml version="1.0" encoding="utf-8"?>
<!-- Generator: Adobe Illustrator 18.1.1, SVG Export Plug-In . SVG Version: 6.00 Build 0)  -->
<svg version="1.1" id="レイヤー_1" xmlns="http://www.w3.org/2000/svg" xmlns:xlink="http://www.w3.org/1999/xlink" x="0px"
	 y="0px" viewBox="0 0 32 32" enable-background="new 0 0 32 32" xml:space="preserve">
<path fill="#2A569C" d="M16,0C7.2,0,0,7.2,0,16c0,8.8,7.2,16,16,16c8.8,0,16-7.2,16-16C32,7.2,24.8,0,16,0z M19.4,16h-2.2
	c0,3.6,0,8,0,8h-3.3c0,0,0-4.4,0-8h-1.6v-2.8h1.6v-1.8c0-1.3,0.6-3.4,3.4-3.4l2.5,0v2.7c0,0-1.5,0-1.8,0c-0.3,0-0.7,0.1-0.7,0.8v1.7
	h2.5L19.4,16z"/>
</svg>
