<?xml version="1.0" encoding="utf-8"?>
<!-- Generator: Adobe Illustrator 18.1.1, SVG Export Plug-In . SVG Version: 6.00 Build 0)  -->
<svg version="1.1" id="レイヤー_1" xmlns="http://www.w3.org/2000/svg" xmlns:xlink="http://www.w3.org/1999/xlink" x="0px"
	 y="0px" viewBox="0 0 32 32" enable-background="new 0 0 32 32" xml:space="preserve">
<path fill="#19E04C" d="M16,0C7.2,0,0,7.2,0,16c0,8.8,7.2,16,16,16c8.8,0,16-7.2,16-16C32,7.2,24.8,0,16,0z M22.4,24.1h-8.6
	c-1.5,0-2.4-0.2-2.4-2.9V6.8c0-0.9,0.5-1.7,1.5-1.7c1.2,0,1.5,1,1.5,1.7v13.2c0,0.8,0.1,1.2,0.8,1.2h7.1c1.3,0,1.7,0.7,1.7,1.5
	C24,23.8,23.2,24.1,22.4,24.1z"/>
</svg>
