<svg xmlns="http://www.w3.org/2000/svg" viewBox="0 0 420.34 334.79"><title>logo</title><g id="レイヤー_2" data-name="レイヤー 2"><g id="レイヤー_1-2" data-name="レイヤー 1"><path d="M55.55,229l-16,6.07,1,3.06L8,327,0,330.6v3.13H23.23V330.6l-7.16-3.19,12-34.33H58.56l11.53,35.08L64.6,330.6v3.13H95.21V330.6l-7.37-3.29ZM30.29,286.86l13.54-38.59,12.68,38.59Z"/><path d="M181.22,302.34l-12.84-16.41c9.51-1.36,19.2-5.86,23.14-13.9,5.8-11.8,5-23.86-3.33-31.73-9.88-9.38-24.87-9.33-30.78-9.33H116.63l4.16,5.48s3.77-.11,9-.22v92.63l-4.22,1.8v3.08h23.6v-3.08l-4.3-1.83V283.05a70.9,70.9,0,0,0,7.42,2.12l33.12,48.55H208v-3.61l-10.48-4.24ZM144.82,236c3.52,0,6.81,0,9.35,0,10.4.24,17.52,1.57,23.47,8.31,4.4,5,6,16.5,1.83,23.79-2.4,4.24-6,12.63-20.68,12.63a39.6,39.6,0,0,1-14-2.67Z"/><path d="M282.54,229l-16,6.07,1,3.06-32.56,89-7.74,3.45v3.13h23.23V330.6l-7.34-3.27,12-34.25h30.44l11.53,35.08-5.48,2.44v3.13h30.61V330.6l-7.37-3.29Zm-25.25,57.86,13.54-38.59,12.68,38.59Z"/><path d="M413.23,288.87c-5.62-5.76-10.92-9.27-23.28-15.7-8.3-4.32-11-6.21-13.05-7.43A38.88,38.88,0,0,1,367,257a12.65,12.65,0,0,1-1.89-9.39c1.24-6.7,6.7-12.5,20.26-11.21,10.26,1,16,5.31,19.89,9.64l2.34,7.78,4,.22L410.19,235l-.9,0a38.77,38.77,0,0,1-7.63-1c-4.33-1-7.61-2.41-14.35-3.39-9.34-1.36-14.69-1-20.93,2a26.93,26.93,0,0,0-13.46,14.43,21.77,21.77,0,0,0-.56,14.32,25.52,25.52,0,0,0,10.09,13.22c7,4.69,10.77,6.81,17.3,10.53,4.8,2.74,9.72,5.21,16.21,8.57,4.23,2.19,9.56,5.44,11.79,9.56a17.1,17.1,0,0,1-.62,16.2c-3.14,5.63-9.46,9.72-18.79,9.33-12.67-.54-21.71-6.26-29.81-14.82a60.41,60.41,0,0,1-8.79-11.52l-3.94,1.23,3.07,25.87c.63,0,8.56-.8,8.56-.8l-1-3.27a32.88,32.88,0,0,0,3.11,2.06,61.18,61.18,0,0,0,30.23,7.35c13.67-.36,20.45-5.87,23.73-9.89C422.88,313.44,422.42,298.3,413.23,288.87Z"/><path d="M346.81,12.65,329,0l-10,7.13H73.32l8.84,9.36h26.92v131l22.53,14.08H288.68V164l18.68,9.47h3.84V161.57h0V16.49h35.6ZM131.61,152.21V16.49h37.34V152.21Zm59.87,0V16.49h37.34V152.21Zm97.2,0H251.35V16.49h37.33Z"/></g></g></svg>