<svg xmlns="http://www.w3.org/2000/svg" viewBox="0 0 255.8 27.91"><defs><style>.cls-1{fill:#00a0e9;}.cls-2{fill:#231815;}</style></defs><title>アセット 2</title><g id="レイヤー_2" data-name="レイヤー 2"><g id="レイヤー_1-2" data-name="レイヤー 1"><path class="cls-1" d="M30.2,24.36a29.52,29.52,0,0,1-8.66,1.26,30.75,30.75,0,0,1-5.83-.55L18,16.39l3.72,3.69a2.32,2.32,0,0,0,1.62.67h7.8l4-15,.62-2.3A29.1,29.1,0,0,0,21.54,0a28.52,28.52,0,0,0-15,3.93C2.31,6.56,0,10.12,0,14s2.31,7.39,6.51,10a28.61,28.61,0,0,0,15,3.93,32.28,32.28,0,0,0,8-1ZM10.67,11.27l-2.9,10.8,0,0C4.22,19.84,2.29,17,2.29,14S4.22,8.07,7.73,5.87A26.25,26.25,0,0,1,21.54,2.29a31,31,0,0,1,5.69.52l-3,11.12-3.7-3.7a2.36,2.36,0,0,0-1.64-.68h-6A2.32,2.32,0,0,0,10.67,11.27Z"/><path class="cls-2" d="M65.36,12.46,66,10.19a1.12,1.12,0,0,0-1.08-1.41H58.11L59,5.43A1.14,1.14,0,0,0,57.9,4H52.84L51.55,8.78H42.7l-1,3.68h8.86L48,21.89H41.13l-.84,3.17H51.82a2.51,2.51,0,0,0,2.43-1.86l2.87-10.74Z"/><path class="cls-2" d="M89.85,8.78H79.78l.89-3.35A1.14,1.14,0,0,0,79.57,4H74.5L73.22,8.78h-4.4l-1,3.68h4.4L69.7,21.89H65.16l-.85,3.17h9.18a2.5,2.5,0,0,0,2.42-1.86l2.88-10.74h6l-2.59,9.43H79.16l-.85,3.17h6.82a2.49,2.49,0,0,0,2.42-1.86l3-10.74.56-2.11A1.24,1.24,0,0,0,89.85,8.78Z"/><polygon class="cls-2" points="108.37 7.57 117.48 7.57 117.48 4.92 94.9 4.92 94.9 7.57 104.01 7.57 104.01 22.33 93.74 22.33 93.74 24.95 118.63 24.95 118.63 22.33 108.37 22.33 108.37 7.57"/><path class="cls-2" d="M144.31,5.67l-2.63-1.43-2.32,3.25h-.81V3.88h-3.76V7.49h-2.54V3.88h-3.76V7.49h-.81l-2.32-3.25-2.63,1.43L124,7.49h-3.29v1.8h5.34l1.29,1.84h-4.64v1.76h8.55v1.27h-8.62v1.69h8.62v1.36H120.85v2.05h5l-2.38,3.16h-2.56v2.49H126a1.23,1.23,0,0,0,1.08-.62l2.94-5h1.2V25h4.53V19.26H137l2.93,5a1.25,1.25,0,0,0,1.08.62h5.19V22.42h-2.56l-2.38-3.16h4.94V17.21h-10.4V15.85h8.62V14.16h-8.62V12.89h8.55V11.13H139.7L141,9.29h5.34V7.49H143ZM136,11.13h-5l-1.29-1.84h7.56Z"/><path class="cls-2" d="M155.34,10.05h3.24V7.43h-3.24V3.88H152V7.43h-3.61v2.62H152v1.12l-2.82,7.32h-.88V21h1a1,1,0,0,0,.93-.63L152,17V25h3.32v-8.5l1.82,2.93a1,1,0,0,0,.93.63h1.11V17.17h-1Z"/><path class="cls-2" d="M171,15.32h3V12.91h-5.38V10.15h5.38V7.74h-5.38V3.88h-3.37V7.74h-1.59V3.88H159.9V7.74h0v2.41h5.28v2.76h-5.36v2.41h3l-2.27,6.49h-.86V25h2.46a1,1,0,0,0,.95-.68l2-6V25h3.37V18l2.14,6.27a1,1,0,0,0,.95.68h2.46V21.8h-.86Z"/><path class="cls-2" d="M194.91,3.88h-4.17l.54,3.87H176.15v2.4h15.46l1.74,12.64A2.5,2.5,0,0,0,195.83,25h5.35V22.17h-3.74l-1.66-12h5.45V7.75h-5.78Z"/><rect class="cls-2" x="197.45" y="3.88" width="2.73" height="2.58"/><polygon class="cls-2" points="185.4 22.57 185.4 15.32 190.37 15.32 190.37 12.95 176.15 12.95 176.15 15.32 181 15.32 181 22.57 176.15 22.57 176.15 24.95 185.78 24.95 190.44 23.36 190.44 20.98 185.78 22.57 185.4 22.57"/><polygon class="cls-2" points="227.65 9.81 227.65 7.4 216.81 4.19 214.33 4.19 203.5 7.4 203.5 9.81 215.64 6.59 227.65 9.81"/><polygon class="cls-2" points="215 10.34 206.61 10.34 206.61 12.88 215 12.88 215.64 12.88 225.18 12.88 225.18 10.34 215.64 10.34 215 10.34"/><path class="cls-2" d="M215.41,14.83H203.26v2.66h5.44l-2.56,5.09h0V25h19.51V22.59h0l-2.56-5.09h5.43V14.83H215.41Zm5.92,7.76H210.45l2.56-5.1h5.76Z"/><rect class="cls-2" x="230.59" y="3.89" width="14.02" height="3.08"/><polygon class="cls-2" points="244.62 10.14 230.59 10.14 230.59 13.22 235.76 13.22 235.76 24.95 239.09 24.95 239.09 13.22 244.62 13.22 244.62 10.14"/><path class="cls-2" d="M230.59,22.11h-.85V25h2.93a1.25,1.25,0,0,0,1.25-1.25V14.08h-3.33Z"/><path class="cls-2" d="M244.62,14.08h-3.33V23.7A1.25,1.25,0,0,0,242.54,25h2.93V22.11h-.85Z"/><polygon class="cls-2" points="255.81 11.83 255.81 8.99 252.59 8.99 252.59 3.88 248.94 3.88 248.94 8.99 245.83 8.99 245.83 11.83 248.94 11.83 248.94 22.11 245.83 22.11 245.83 24.95 255.81 24.95 255.81 22.11 252.59 22.11 252.59 11.83 255.81 11.83"/></g></g></svg>