<?xml version="1.0" encoding="utf-8"?>
<!-- Generator: Adobe Illustrator 21.1.0, SVG Export Plug-In . SVG Version: 6.00 Build 0)  -->
<svg version="1.1" id="レイヤー_1" xmlns="http://www.w3.org/2000/svg" xmlns:xlink="http://www.w3.org/1999/xlink" x="0px"
	 y="0px" viewBox="0 0 328.5 147.7" width="105" height="47" style="enable-background:new 0 0 328.5 147.7;" xml:space="preserve">
<style type="text/css">
	.st0{fill:#B7BCC0;}
	.st1{fill:#B6BCC0;}
</style>
<g>
	<g>
		<path class="st0" d="M149.6,0c-26.4,0-47.9,21.5-47.9,47.9v27.5h-24c-3.4-5.6-9.6-9.3-16.6-9.3c-10.8,0-19.5,8.7-19.5,19.5
			c0,10.8,8.8,19.5,19.5,19.5c7,0,13.2-3.8,16.6-9.3c2.4,0,13.5,0,22.6,0c-4.6,17.4-20.4,30.4-39.2,30.4c-10.8,0-21-4.2-28.7-11.9
			c-7.7-7.7-11.9-17.9-11.9-28.7C20.5,63.3,38.7,45,61.1,45V24.6C27.4,24.6,0,52,0,85.6c0,16.3,6.4,31.7,17.9,43.2
			c11.5,11.5,26.9,17.9,43.2,17.9l0,0c33.7,0,61-27.4,61-61.1V75.4V47.9c0-15.1,12.3-27.5,27.5-27.5c15.2,0,27.5,12.3,27.5,27.5
			c0,15.1-12.3,27.5-27.5,27.5h-15.4v20.5h15.4c26.4,0,47.9-21.5,47.9-48C197.5,21.5,176,0,149.6,0z"/>
		<path class="st1" d="M165,48c0,8.5-6.9,15.4-15.4,15.4c-8.5,0-15.5-6.9-15.5-15.4c0-8.5,6.9-15.4,15.5-15.4
			C158.1,32.5,165,39.4,165,48z"/>
		<path class="st1" d="M229.6,19c0,6.7-5.5,12.2-12.2,12.2c-6.8,0-12.2-5.5-12.2-12.2c0-6.8,5.5-12.2,12.2-12.2
			C224.1,6.8,229.6,12.3,229.6,19z"/>
		<path d="M150.5,145.4c-2.8,1.5-6,2.3-9.6,2.3c-7.2,0-12.3-4.9-12.3-12.1c0-7.5,5.1-12.3,12.3-12.3c3.5,0,6.7,0.8,9.2,2.9l-3.1,3.1
			c-1.5-1.5-3.7-2.3-6.1-2.3c-4.8,0-8,3.6-8,8.3c0,5,3.2,8.6,8,8.6c2.1,0,4-0.4,5.4-1.2v-5.5h-4.7v-3.7h8.9V145.4z"/>
		<path d="M158.1,123.9h7.8c4.5,0,8.6,1.6,8.6,6.7c0,5.8-4.4,6.9-9.3,6.9h-3v9.6h-4.1V123.9z M164.7,134c2.4,0,5.4-0.1,5.4-3.3
			c0-2.9-2.7-3.2-5-3.2h-3v6.5H164.7z"/>
		<path d="M187.4,140.7h-8.1v-3.4h8.1V140.7z"/>
		<path d="M204.7,123.3c7.2-0.1,12.4,4.7,12.4,12.2c0,7.3-5.1,12.1-12.4,12.2c-7.2,0-12.3-4.9-12.3-12.1
			C192.4,128.2,197.6,123.3,204.7,123.3z M204.7,144c4.8,0,8-3.7,8-8.6c0-4.6-3.2-8.3-8-8.3c-4.8,0-8,3.6-8,8.3
			C196.8,140.3,199.9,144,204.7,144z"/>
		<path d="M223.7,123.9h5.5l11.3,17.3l0.1,0.1h-0.1l0.1-0.1v-17.3h4.1v23.2h-5.2l-11.5-17.8h-0.1v17.8h-4.1V123.9z"/>
		<path d="M252.4,123.9h4.1v19.5h9.9v3.7h-14V123.9z"/>
		<path d="M271.9,123.9h4.1v23.2h-4.1V123.9z"/>
		<path d="M283.8,123.9h5.5l11.2,17.3l0.1,0.1h-0.1l0.1-0.1v-17.3h4.1v23.2h-5.2L288,129.3h0v17.8h-4.1V123.9z"/>
	</g>
	<path d="M312.5,123.9h15.4v3.7h-11.3v5.7h10.7v3.7h-10.7v6.3h11.9v3.7h-16V123.9z"/>
</g>
</svg>
