<svg id="Layer_1" data-name="Layer 1" xmlns="http://www.w3.org/2000/svg" viewBox="0 0 268.33 548.9"><defs><style>.cls-1{fill:#fff;}</style></defs><title>shutterstock_550361773 [更新済み]</title><path class="cls-1" d="M236.56,252.28c-63.05,0-114.35,43.26-114.35,96.43V529.55c0,48.24,42.22,88.32,97.14,95.34V612.94C171,606.16,134,571.36,134,529.55V348.71c0-46.65,46-84.61,102.53-84.61s102.53,38,102.53,84.61V529.55c0,45-42.82,81.92-96.62,84.46V431.61H230.65V694.19l-20.56-20.56L201.73,682l34.83,34.83L271.4,682,263,673.63l-20.56,20.56V625.85c60.31-2.6,108.44-44.8,108.44-96.3V348.71C350.91,295.54,299.62,252.28,236.56,252.28Z" transform="translate(-100.71 -167.92)"/><path class="cls-1" d="M272.25,345.72a35.69,35.69,0,1,0-35.69,35.69A35.73,35.73,0,0,0,272.25,345.72Zm-35.69-23.87a23.87,23.87,0,1,1-23.87,23.87A23.89,23.89,0,0,1,236.56,321.85Z" transform="translate(-100.71 -167.92)"/><path class="cls-1" d="M127.48,182.24c-1.24-5.23-4.11-7.9-8.59-7.9-5.1,0-8,2.43-8,6.29,0,4.23,1.87,6.16,8.84,8.09l2.55,0.75c11,3,14.13,7.16,14.13,14.25,0,8.46-5.85,14.32-17.43,14.32-9.4,0-15.93-4.11-18.24-12.51l8-2.55c1.24,5.6,4.92,8.71,10,8.71,6.35,0,9.21-2.74,9.21-6.91s-1.49-6.1-9.4-8.34l-2.49-.75c-10.27-3-13.57-7.1-13.57-14.5S108.25,168,118.64,168c8.46,0,14.44,4,17,12Z" transform="translate(-100.71 -167.92)"/><path class="cls-1" d="M177.46,184.6c-1.18-6.72-4.67-10.21-10.15-10.21-7.16,0-12.14,6.22-12.14,18.55s5.1,18.55,12.14,18.55c5.79,0,9.27-3.3,10.64-10.33l7.9,2.43c-2.55,10-8.78,14.38-18.61,14.38-12.51,0-21-9-21-25s8.53-25.08,21-25.08c9.9,0,16.37,5.54,18.36,14.69Z" transform="translate(-100.71 -167.92)"/><path class="cls-1" d="M214.75,168.8c11.76,0,17.12,4.73,17.12,13.13,0,6-3.36,10.39-9.58,12.26l11.14,22.9h-9l-9.77-21.66c-0.68,0-1.37.06-2.18,0.06H205.6v21.6h-8.22V168.8h17.36Zm-9.15,20.48H214c6.6,0,9.46-2.74,9.46-7.22,0-4.29-2.43-7-9.09-7H205.6v14.19Z" transform="translate(-100.71 -167.92)"/><path class="cls-1" d="M282.71,192.94c0,15.93-8.34,25.08-20.73,25.08s-20.66-9-20.66-25S249.73,168,262.05,168,282.71,176.95,282.71,192.94Zm-32.49.06c0,12.32,4.73,18.55,11.83,18.55s11.76-6.22,11.76-18.55-4.67-18.55-11.76-18.55S250.23,180.62,250.23,193Z" transform="translate(-100.71 -167.92)"/><path class="cls-1" d="M303.82,210.31h22.66v6.78H295.35V168.8h8.46v41.51Z" transform="translate(-100.71 -167.92)"/><path class="cls-1" d="M346.39,210.31H369v6.78H337.93V168.8h8.46v41.51Z" transform="translate(-100.71 -167.92)"/></svg>